<svg width="108" height="37" viewBox="0 0 108 37" fill="none" xmlns="http://www.w3.org/2000/svg">
<path d="M0 6.16C0 2.84629 2.68629 0.16 6 0.16H42.5841C46.0726 0.16 49.0287 2.72865 49.5156 6.18305L51.0294 16.9233C51.5145 20.3651 56.4855 20.3651 56.9706 16.9233L58.4844 6.18305C58.9713 2.72865 61.9274 0.16 65.4159 0.16H102C105.314 0.16 108 2.84629 108 6.16V30.28C108 33.5937 105.314 36.28 102 36.28H74C69.5817 36.28 66 32.6983 66 28.28V16.0672C66 12.5964 61.0881 11.897 60.1193 15.2298L56.8808 26.3702C56.0425 29.2536 51.9575 29.2537 51.1193 26.3702L47.8808 15.2298C46.9119 11.897 42 12.5965 42 16.0672V28.28C42 32.6983 38.4183 36.28 34 36.28H6C2.68629 36.28 0 33.5937 0 30.28V6.16Z" fill="white"/>
</svg>
