<svg width="132" height="65" viewBox="0 0 132 65" fill="none" xmlns="http://www.w3.org/2000/svg">
<path fill-rule="evenodd" clip-rule="evenodd" d="M38.3183 8.4409C38.3183 6.45895 39.925 4.85225 41.9069 4.85225H90.0251C92.0071 4.85225 93.6137 6.45895 93.6137 8.4409V24.0591H59.9512H38.3183V8.4409ZM57.5251 28.9114H38.3183V56.5591C38.3183 58.541 39.925 60.1477 41.9069 60.1477H57.5251V28.9114ZM62.3774 60.1477V28.9114H93.6137V56.5591C93.6137 58.541 92.0071 60.1477 90.0251 60.1477H62.3774ZM59.9574 65H90.0251C94.6869 65 98.466 61.2209 98.466 56.5591V26.4852V8.4409C98.466 3.77912 94.6869 0 90.0251 0H41.9069C37.2451 0 33.466 3.77912 33.466 8.4409V26.4852V56.5591C33.466 61.2209 37.2451 65 41.9069 65H59.9451C59.9471 65 59.9492 65 59.9512 65C59.9533 65 59.9553 65 59.9574 65ZM27.7041 11.6951L29.271 11.2752V27.2012L7.57786 33.0139L9.04763 38.4991L29.271 33.0803V38.1037L10.3035 43.186L11.7733 48.6714L21.6366 46.0286L29.271 43.9829V49.0063L25.2358 50.0875L26.7056 55.5728L29.271 54.8854V59.9089L25.6317 60.884L25.618 60.8877L25.6043 60.8913L17.4802 63.0682C13.9388 64.0171 10.2986 61.9155 9.34967 58.374L7.71434 52.2707L4.98869 42.0984L2.26302 31.9262L0.627632 25.8229C-0.321297 22.2815 1.78036 18.6413 5.32179 17.6924L27.6973 11.6969L27.7007 11.696L27.7041 11.6951ZM114.902 63.0682L102.055 59.6257V54.6023L105.558 55.5409L109.608 39.8445L102.055 37.8206V32.7971L123.335 38.4991L127.068 24.5671C127.323 23.6141 126.758 22.6346 125.805 22.3793L102.055 16.0155V10.9921L127.061 17.6924C130.602 18.6413 132.704 22.2815 131.755 25.8229L127.394 42.0984L123.033 58.374C122.084 61.9155 118.444 64.0171 114.902 63.0682ZM114.295 41.1004L122.079 43.186L118.346 57.1182C118.091 58.0711 117.111 58.6366 116.158 58.3813L110.245 56.7968L114.295 41.1004ZM6.57765 22.3793C5.62472 22.6346 5.05921 23.6141 5.31454 24.5671L6.322 28.3269L28.0829 22.4961L26.6131 17.0108L6.57765 22.3793ZM16.2243 58.3813L22.0187 56.8287L20.5489 51.3434L13.0291 53.3583L14.0366 57.1182C14.2919 58.0711 15.2714 58.6366 16.2243 58.3813Z" fill="white"/>
</svg>
